PathFileType	4	(X/Y/Z)	C:\ABL_Data\ExoAging\Piloting\Dec 6 2019\Generated_files\static_1.trc
DataRate	CameraRate	NumFrames	NumMarkers	Units	OrigDataRate	OrigDataStartFrame	OrigNumFrames
100.00	100.00	       8	20	mm	100.00	1	       539
Frame#	Time	R.Acromium			L.Acromium			Sternum			R.ASIS			R.PSIS			S2			L.PSIS			L.ASIS			R.Knee			R.Ankle			L.Knee			L.Ankle			R.MKnee			R.MAnkle			L.MKnee			L.MAnkle			C7			T12			Clav			R.Back			
		X1	Y1	Z1	X2	Y2	Z2	X3	Y3	Z3	X4	Y4	Z4	X5	Y5	Z5	X6	Y6	Z6	X7	Y7	Z7	X8	Y8	Z8	X9	Y9	Z9	X10	Y10	Z10	X11	Y11	Z11	X12	Y12	Z12	X13	Y13	Z13	X14	Y14	Z14	X15	Y15	Z15	X16	Y16	Z16	X17	Y17	Z17	X18	Y18	Z18	X19	Y19	Z19	X20	Y20	Z20	

1	0.000	778.44598	363.16681	1491.82898	792.08356	767.16626	1482.38940	909.88934	549.54395	1310.17676	855.99207	423.02048	1006.37225	672.58423	505.65326	1043.52966	656.31909	558.23175	1019.71625	678.20386	608.20862	1047.09668	865.41107	683.46820	1017.71008	758.98230	361.48386	513.22174	693.57465	359.43591	87.81198	759.44159	740.34729	509.80536	701.45819	751.40808	80.29144	780.43414	474.99789	490.61810	739.48352	439.51932	93.00707	769.38397	627.71185	487.31097	717.81628	661.39459	94.08878	701.16425	551.54889	1556.60095	675.72235	559.62500	1186.68005	860.04095	555.61304	1457.05957	631.94727	438.55289	1395.38220	
2	0.010	778.48450	363.18634	1491.86145	792.10236	767.11334	1482.43787	909.95795	549.50159	1310.20703	855.98657	423.03043	1006.37183	672.54651	505.68301	1043.52771	656.30432	558.22314	1019.73303	678.20605	608.24329	1047.09119	865.39844	683.47247	1017.72162	758.96600	361.51727	513.17334	693.60675	359.42953	87.80962	759.43640	740.35303	509.81818	701.44397	751.44928	80.31727	780.41309	475.03943	490.61859	739.49756	439.48700	92.99058	769.38745	627.71179	487.34018	717.83813	661.37775	94.06719	701.16962	551.51337	1556.61292	675.76843	559.61859	1186.66345	860.03345	555.67175	1457.06934	631.94177	438.52673	1395.39661	
3	0.020	778.46948	363.17856	1491.87329	792.07251	767.17896	1482.43628	909.90009	549.53973	1310.18750	855.97913	423.04919	1006.33850	672.53766	505.76160	1043.56433	656.27991	558.23071	1019.75201	678.22003	608.19159	1047.11646	865.36804	683.50934	1017.74353	758.94922	361.53433	513.13843	693.59064	359.44308	87.80280	759.42279	740.35248	509.81598	701.41504	751.41937	80.30443	780.36346	474.99969	490.61050	739.47052	439.52414	93.01594	769.35004	627.67163	487.40100	717.80261	661.36426	94.08466	701.16479	551.48444	1556.61328	675.74591	559.63947	1186.73193	860.03748	555.67822	1457.05139	631.94904	438.50320	1395.40564	
4	0.030	778.44745	363.20508	1491.93188	792.10406	767.17511	1482.44250	909.81854	549.57776	1310.17773	855.93939	423.02942	1006.39270	672.54840	505.76709	1043.57043	656.28058	558.22748	1019.75531	678.21936	608.20178	1047.12683	865.37335	683.52710	1017.77606	758.93872	361.52740	513.14417	693.55713	359.44553	87.80375	759.42963	740.33356	509.82977	701.43835	751.41962	80.31467	780.39697	474.97647	490.62756	739.45355	439.51755	93.02765	769.39886	627.70087	487.36130	717.76532	661.39355	94.12672	701.16364	551.52216	1556.64307	675.76434	559.63525	1186.75012	860.05322	555.66931	1457.08569	631.96552	438.53180	1395.42200	
5	0.040	778.43646	363.25903	1491.97644	792.09662	767.17499	1482.48584	909.84827	549.54126	1310.23706	855.96149	423.04797	1006.40222	672.58356	505.74750	1043.59265	656.31189	558.25720	1019.79468	678.22760	608.25879	1047.14099	865.38892	683.52728	1017.81958	758.96167	361.52097	513.19745	693.55896	359.47845	87.84509	759.43872	740.35181	509.83032	701.86151	751.79944	80.23219	780.42194	475.01797	490.64319	739.47144	439.49860	93.03306	769.40735	627.71649	487.36972	717.79022	661.37982	94.14622	701.16632	551.52142	1556.65881	675.76440	559.68414	1186.72009	860.03809	555.70679	1457.10474	631.96167	438.55728	1395.42944	
6	0.050	778.38739	363.23666	1491.97156	792.04767	767.21973	1482.46143	909.88165	549.52972	1310.24072	855.98163	423.05539	1006.38696	672.54803	505.79089	1043.56018	656.27521	558.29675	1019.79559	678.19934	608.30664	1047.15491	865.37201	683.55505	1017.80060	758.89709	361.55359	513.18652	693.58142	359.43805	87.83796	759.40234	740.38165	509.85709	701.45264	751.42670	80.34025	780.43390	475.03708	490.60086	739.46265	439.50226	93.05539	769.38141	627.72400	487.40744	717.80927	661.38074	94.10707	701.17242	551.53369	1556.65430	675.78339	559.67657	1186.74963	860.00818	555.61591	1457.08887	631.96729	438.56339	1395.41992	
7	0.060	778.39935	363.18860	1491.93701	792.07349	767.17340	1482.46704	909.88202	549.54272	1310.22681	855.98785	423.07489	1006.36914	672.56335	505.83850	1043.56763	656.29980	558.27966	1019.78076	678.22076	608.29529	1047.15161	865.39252	683.50732	1017.80194	758.90570	361.53854	513.18188	693.59546	359.44299	87.80634	759.42065	740.37579	509.85696	701.44958	751.43341	80.35162	780.40216	475.03210	490.63876	739.46381	439.51550	93.02715	769.37213	627.70380	487.36972	717.83759	661.38110	94.14651	701.15320	551.50873	1556.63037	675.79150	559.66919	1186.73694	860.01611	555.61902	1457.08325	631.95203	438.54407	1395.41284	
8	0.070	778.37616	363.19736	1491.93115	792.07825	767.14093	1482.45496	909.84778	549.54028	1310.22510	855.99542	423.08603	1006.38544	672.57581	505.80563	1043.54602	656.31848	558.31860	1019.79877	678.26843	608.30707	1047.14612	865.39435	683.55054	1017.79510	758.91034	361.53049	513.15735	693.58246	359.42709	87.82501	759.42621	740.37305	509.82385	701.44128	751.45221	80.33984	780.39203	475.01816	490.65286	739.44696	439.49216	93.03786	769.37347	627.62445	487.43732	717.83673	661.38086	94.13841	701.14026	551.53815	1556.65417	675.79498	559.65369	1186.71338	859.98505	555.61108	1457.11890	631.95337	438.54382	1395.40820	
